<?xml version="1.0" encoding="utf-8"?>
<!-- Generator: Adobe Illustrator 18.0.0, SVG Export Plug-In . SVG Version: 6.00 Build 0)  -->
<!DOCTYPE svg PUBLIC "-//W3C//DTD SVG 1.1//EN" "http://www.w3.org/Graphics/SVG/1.1/DTD/svg11.dtd">
<svg version="1.1" id="Layer_1" xmlns="http://www.w3.org/2000/svg" xmlns:xlink="http://www.w3.org/1999/xlink" x="0px" y="0px"
	 viewBox="0 0 52.8 89.6" enable-background="new 0 0 52.8 89.6" xml:space="preserve">
<g id="_351507328">
	<g>
		<path fill="#E1B07E" d="M36.1,32.3c5.7,0,8.9,4.4,7.2,9.8L29.5,85.5c-1.7,5.4-4.5,5.4-6.3,0L9.4,42.1c-1.7-5.4,1.5-9.8,7.2-9.8
			H36.1z"/>
		<g>
			<g>
				<path fill="#010101" fill-opacity="0" stroke="#E5BF95" stroke-width="1.451" d="M31.2,80.1L24,87.3"/>
				<path fill="#010101" fill-opacity="0" stroke="#E5BF95" stroke-width="1.451" d="M35.1,67.8L21.9,81.1"/>
				<path fill="#010101" fill-opacity="0" stroke="#E5BF95" stroke-width="1.451" d="M39.1,55.4L19.8,74.6"/>
				<path fill="#010101" fill-opacity="0" stroke="#E5BF95" stroke-width="1.451" d="M43.1,42.9L17.8,68.2"/>
				<path fill="#010101" fill-opacity="0" stroke="#E5BF95" stroke-width="1.451" d="M42.4,35.1L15.7,61.8"/>
				<path fill="#010101" fill-opacity="0" stroke="#E5BF95" stroke-width="1.451" d="M36.7,32.3l-23,23"/>
			</g>
			<g>
				<path fill="#010101" fill-opacity="0" stroke="#E5BF95" stroke-width="1.451" d="M21.3,79.3l7.6,7.7"/>
				<path fill="#010101" fill-opacity="0" stroke="#E5BF95" stroke-width="1.451" d="M17.4,66.9l13.8,13.7"/>
				<path fill="#010101" fill-opacity="0" stroke="#E5BF95" stroke-width="1.451" d="M13.4,54.4l19.7,19.7"/>
				<path fill="#010101" fill-opacity="0" stroke="#E5BF95" stroke-width="1.451" d="M9.4,42l25.7,25.7"/>
				<path fill="#010101" fill-opacity="0" stroke="#E5BF95" stroke-width="1.451" d="M10.7,34.8l26.6,26.6"/>
				<path fill="#010101" fill-opacity="0" stroke="#E5BF95" stroke-width="1.451" d="M16.6,32.3l22.6,22.5"/>
			</g>
		</g>
		<path fill="#FFFFFF" d="M13.7,58.6L19.9,78H33l6.2-19.4c0-1.2-0.9-2.2-2.1-2.2c-0.8,0-1.4,0.4-1.8,1.1c-0.4-0.6-1-1.1-1.8-1.1
			c-0.8,0-1.4,0.4-1.8,1.1c-0.4-0.6-1-1.1-1.8-1.1c-0.8,0-1.4,0.4-1.8,1.1c-0.4-0.6-1-1.1-1.8-1.1c-0.8,0-1.4,0.4-1.8,1.1
			c-0.4-0.6-1-1.1-1.8-1.1c-0.8,0-1.4,0.4-1.8,1.1c-0.4-0.6-1-1.1-1.8-1.1c-0.8,0-1.4,0.4-1.8,1.1c-0.4-0.6-1-1.1-1.8-1.1
			c-1.2,0-1.9,1-1.9,2.2H13.7z"/>
		<g>
			<path fill="#E9A3AF" d="M17.4,65.2v-2.7h1v2.7H17.4z"/>
			<path fill="#E9A3AF" d="M20.4,63.2v0.9c-0.2-0.1-0.4-0.1-0.5-0.1c-0.1,0-0.1,0-0.2,0.1c-0.1,0-0.1,0.1-0.1,0.1
				c0,0.1,0.1,0.2,0.4,0.2c0.2,0,0.4-0.1,0.5-0.1v0.9c-0.2,0.1-0.4,0.1-0.6,0.1c-0.4,0-0.6-0.1-0.9-0.3c-0.2-0.2-0.3-0.4-0.3-0.8
				c0-0.3,0.1-0.6,0.3-0.8s0.4-0.3,0.8-0.3c0.2,0,0.4,0.1,0.7,0.1H20.4z"/>
			<path fill="#E9A3AF" d="M22.5,64.4v0.4c-0.2,0.3-0.5,0.4-0.9,0.4c-0.4,0-0.6-0.1-0.8-0.3c-0.2-0.2-0.3-0.4-0.3-0.8
				c0-0.3,0.1-0.6,0.3-0.8s0.4-0.3,0.7-0.3c0.1,0,0.3,0,0.4,0.1c0.1,0.1,0.2,0.1,0.4,0.2c0.1,0.1,0.1,0.2,0.2,0.4
				c0.1,0.1,0.1,0.3,0.1,0.5h-1c0,0.1,0.1,0.2,0.1,0.2c0.1,0.1,0.1,0.1,0.3,0.1c0.2,0,0.4-0.1,0.5-0.2V64.4z M21.5,63.9L21.5,63.9
				H22c0-0.1,0-0.2-0.1-0.2c-0.1-0.1-0.1-0.1-0.1-0.1c-0.1,0-0.1,0-0.1,0.1C21.5,63.8,21.5,63.9,21.5,63.9z"/>
			<path fill="#E9A3AF" d="M25.8,62.9l-0.4,0.9c-0.1-0.1-0.3-0.1-0.4-0.1c-0.2,0-0.4,0.1-0.4,0.2c0,0.1,0,0.1,0.1,0.1
				c0.1,0.1,0.1,0.1,0.3,0.1s0.3,0,0.4-0.1l0.4,1c-0.1,0.1-0.3,0.1-0.4,0.2s-0.4,0.1-0.5,0.1c-0.4,0-0.7-0.1-0.9-0.4
				c-0.2-0.3-0.4-0.6-0.4-0.9c0-0.4,0.1-0.7,0.4-1c0.2-0.3,0.6-0.4,0.9-0.4c0.1,0,0.4,0,0.5,0.1c0.1,0.1,0.3,0.1,0.4,0.2V62.9z"/>
			<path fill="#E9A3AF" d="M26.9,63.6c0.1-0.3,0.3-0.5,0.5-0.5c0.1,0,0.2,0.1,0.3,0.1c0.1,0.1,0.1,0.2,0.1,0.4
				c0,0.1-0.1,0.3-0.1,0.4c-0.1,0.1-0.2,0.1-0.3,0.1c-0.1,0-0.3-0.1-0.4-0.2c-0.1,0.1-0.1,0.3-0.1,0.5v0.8h-0.9v-2.1h0.9V63.6
				L26.9,63.6z"/>
			<path fill="#E9A3AF" d="M29.8,64.4v0.4c-0.2,0.3-0.5,0.4-0.9,0.4c-0.4,0-0.6-0.1-0.8-0.3c-0.2-0.2-0.3-0.4-0.3-0.8
				c0-0.3,0.1-0.6,0.3-0.8s0.4-0.3,0.7-0.3c0.1,0,0.3,0,0.4,0.1c0.1,0.1,0.2,0.1,0.4,0.2c0.1,0.1,0.1,0.2,0.2,0.4s0.1,0.3,0.1,0.5
				h-1c0,0.1,0.1,0.2,0.1,0.2c0.1,0.1,0.1,0.1,0.3,0.1c0.2,0,0.4-0.1,0.5-0.2V64.4z M28.8,63.9L28.8,63.9h0.4c0-0.1,0-0.2-0.1-0.2
				c-0.1-0.1-0.1-0.1-0.1-0.1c-0.1,0-0.1,0-0.1,0.1C28.8,63.8,28.8,63.9,28.8,63.9z"/>
			<path fill="#E9A3AF" d="M30,64v-0.6c0.3-0.1,0.6-0.2,0.9-0.2s0.6,0.1,0.7,0.2s0.2,0.4,0.2,0.7v1.2h-0.9v-0.1
				c-0.1,0.1-0.3,0.1-0.4,0.1s-0.3-0.1-0.4-0.1C30,65,30,64.9,30,64.7c0-0.1,0.1-0.3,0.1-0.4c0.1-0.1,0.3-0.1,0.4-0.1s0.2,0,0.4,0.1
				c0-0.1,0-0.1-0.1-0.2c-0.1-0.1-0.1-0.1-0.3-0.1S30.2,64,30,64L30,64z M30.9,64.8L30.9,64.8v-0.3c-0.1,0-0.1,0-0.1,0
				c-0.1,0-0.1,0-0.1,0.1c0,0-0.1,0.1-0.1,0.1c0,0.1,0,0.1,0.1,0.1c0.1,0.1,0.1,0.1,0.1,0.1C30.8,64.9,30.9,64.9,30.9,64.8
				L30.9,64.8z"/>
			<path fill="#E9A3AF" d="M33,63.1v0.3c0.1-0.2,0.4-0.3,0.6-0.3c0.3,0,0.5,0.1,0.6,0.4c0.1-0.1,0.2-0.2,0.3-0.3
				c0.1-0.1,0.2-0.1,0.4-0.1c0.2,0,0.4,0.1,0.5,0.2s0.1,0.4,0.1,0.6v1.3h-0.9V64c0-0.1,0-0.1-0.1-0.1c0-0.1-0.1-0.1-0.1-0.1
				c-0.1,0-0.1,0-0.1,0.1v1.4h-0.9V64c0-0.1,0-0.1-0.1-0.1c0-0.1-0.1-0.1-0.1-0.1s-0.1,0-0.1,0.1v1.4h-0.9v-2.1h0.9H33z"/>
		</g>
		<path fill="#E9A3AF" d="M18.5,73.9l0.4,1.4h14.9l0.4-1.4H18.5z"/>
		<path fill="#E9A3AF" d="M19.4,76.7h14l0.2-0.7H19.2L19.4,76.7z"/>
	</g>
	<g>
		<path fill="#96CDAF" d="M3.3,38.3C1.1,34.9,0,30.8,0,26.4C0,11.8,11.8,0,26.4,0s26.4,11.8,26.4,26.4c0,5.3-1.5,10.4-4.8,14
			c-1.6,1.8-2.5,4.5-2.1,6.1c0.5,1.7-1.4,2.9-4.3,0.7c-0.7,3.9-3.2,7.1-7.8,7.6c-3.2,0.4-7-2.3-8.2-4.8c-1.2-2.4-2.9-3.6-4.3-0.9
			s-5.8,4.8-8.7,3.2s-2.2-4.8-1.9-7c0.2-2.2-1.2-1.4-2.7,0.5c-1.4,1.9-4.5,1.4-3.6-1.4C5,42.4,5,40.8,3.3,38.3L3.3,38.3z"/>
		<path fill="#96CDAF" fill-opacity="0.502" d="M36,43.7c-15,0-27.1-12.1-27.1-27.1c0-4.4,1.1-8.6,3-12.2C4.8,9.1,0,17.2,0,26.4
			c0,4.4,1.1,8.6,3.3,11.9c1.6,2.4,1.7,4,1.1,6.1c-0.9,2.8,2.2,3.4,3.6,1.4c1.4-1.9,2.9-2.7,2.7-0.5c-0.2,2.2-0.9,5.3,1.9,7
			c2.9,1.7,7.3-0.5,8.7-3.2s3.2-1.4,4.3,0.9c1.2,2.4,5,5,8.2,4.8c4.5-0.5,7-3.7,7.8-7.6c2.9,2.2,4.8,0.9,4.3-0.7
			c-0.4-1.5,0.3-3.7,1.5-5.5C43.9,42.7,40,43.6,36,43.7L36,43.7z"/>
		<path fill="#673A16" d="M40.8,25.6l-3-1.9l1.9-3.1l3,2L40.8,25.6z"/>
		<path fill="#673A16" d="M35.8,36.6l-3.5,1l-1-3.5l3.5-1L35.8,36.6z"/>
		<path fill="#673A16" d="M41.8,35.4l-2.2-1.9l1.9-2.2l2.2,1.9L41.8,35.4z"/>
		<path fill="#673A16" d="M11.7,33.8l-3.5-0.7l0.7-3.5l3.5,0.7L11.7,33.8z"/>
		<path fill="#673A16" d="M18.8,24.6l-2.4,2.3l-2.3-2.4l2.4-2.2L18.8,24.6z"/>
		<path fill="#673A16" d="M23.2,39.5l-2.9-0.3l0.4-2.9l2.9,0.3L23.2,39.5z"/>
		<path fill="#673A16" d="M38.2,13.2l-3.1,2.4l-2.5-3.2l3.2-2.4L38.2,13.2z"/>
		<path fill="#673A16" d="M15.6,17.4l-3.5-1.9l1.9-3.5l3.5,1.9L15.6,17.4z"/>
		<path fill="#673A16" d="M27.4,12.1l-2.6,1.3l-1.3-2.6l2.7-1.3L27.4,12.1z"/>
		<path fill="#673A16" d="M29.9,23.7l-4.2,1.2l-1.1-4.2l4.2-1.1L29.9,23.7z"/>
		<path fill="#FFFFFF" fill-opacity="0.8" d="M49.2,30.5c0,1.9-0.2,3.7-0.6,5.5c1.4-2.7,2.2-5.9,2.2-9.6C50.8,13,39.8,2.1,26.4,2.1
			c-3.5,0-6.7,0.7-9.6,2c1.7-0.4,3.5-0.6,5.4-0.6C37.1,3.5,49.2,15.6,49.2,30.5z"/>
	</g>
</g>
</svg>
