<?xml version="1.0" encoding="utf-8"?>
<!-- Generator: Adobe Illustrator 18.0.0, SVG Export Plug-In . SVG Version: 6.00 Build 0)  -->
<!DOCTYPE svg PUBLIC "-//W3C//DTD SVG 1.1//EN" "http://www.w3.org/Graphics/SVG/1.1/DTD/svg11.dtd">
<svg version="1.1" id="Layer_1" xmlns="http://www.w3.org/2000/svg" xmlns:xlink="http://www.w3.org/1999/xlink" x="0px" y="0px"
	 viewBox="0 0 52.8 92.2" enable-background="new 0 0 52.8 92.2" xml:space="preserve">
<g id="_412214752">
	<g>
		<path fill="#E1B07E" d="M36.3,34.9c5.7,0,8.9,4.4,7.2,9.8L29.7,88.1c-1.7,5.4-4.5,5.4-6.3,0L9.6,44.7c-1.7-5.4,1.5-9.8,7.2-9.8
			H36.3z"/>
		<g>
			<g>
				<path fill="#010101" fill-opacity="0" stroke="#E5BF95" stroke-width="1.451" d="M31.3,82.8L24.1,90"/>
				<path fill="#010101" fill-opacity="0" stroke="#E5BF95" stroke-width="1.451" d="M35.3,70.4L22,83.7"/>
				<path fill="#010101" fill-opacity="0" stroke="#E5BF95" stroke-width="1.451" d="M39.2,58L19.9,77.3"/>
				<path fill="#010101" fill-opacity="0" stroke="#E5BF95" stroke-width="1.451" d="M43.2,45.6L17.9,70.8"/>
				<path fill="#010101" fill-opacity="0" stroke="#E5BF95" stroke-width="1.451" d="M42.6,37.7L15.8,64.4"/>
				<path fill="#010101" fill-opacity="0" stroke="#E5BF95" stroke-width="1.451" d="M36.9,35l-23,23"/>
			</g>
			<g>
				<path fill="#010101" fill-opacity="0" stroke="#E5BF95" stroke-width="1.451" d="M21.5,81.9l7.6,7.7"/>
				<path fill="#010101" fill-opacity="0" stroke="#E5BF95" stroke-width="1.451" d="M17.5,69.5l13.8,13.7"/>
				<path fill="#010101" fill-opacity="0" stroke="#E5BF95" stroke-width="1.451" d="M13.5,57.1l19.7,19.7"/>
				<path fill="#010101" fill-opacity="0" stroke="#E5BF95" stroke-width="1.451" d="M9.6,44.7l25.7,25.7"/>
				<path fill="#010101" fill-opacity="0" stroke="#E5BF95" stroke-width="1.451" d="M10.8,37.4L37.4,64"/>
				<path fill="#010101" fill-opacity="0" stroke="#E5BF95" stroke-width="1.451" d="M16.8,34.9l22.6,22.6"/>
			</g>
		</g>
		<path fill="#FFFFFF" d="M13.8,61.3L20,80.7h13.1l6.2-19.4c0-1.2-0.9-2.2-2.1-2.2c-0.8,0-1.4,0.4-1.8,1.1c-0.4-0.6-1-1.1-1.8-1.1
			s-1.4,0.4-1.8,1.1c-0.4-0.6-1-1.1-1.8-1.1s-1.4,0.4-1.8,1.1c-0.4-0.6-1-1.1-1.8-1.1c-0.8,0-1.4,0.4-1.8,1.1
			c-0.4-0.6-1-1.1-1.8-1.1c-0.8,0-1.4,0.4-1.8,1.1c-0.4-0.6-1-1.1-1.8-1.1c-0.8,0-1.4,0.4-1.8,1.1c-0.4-0.6-1-1.1-1.8-1.1
			c-1.2,0-1.9,1-1.9,2.2H13.8z"/>
		<g>
			<path fill="#E9A3AF" d="M17.6,67.9v-2.7h1v2.7H17.6z"/>
			<path fill="#E9A3AF" d="M20.6,65.9v0.9c-0.2-0.1-0.4-0.1-0.5-0.1c-0.1,0-0.1,0-0.2,0.1c-0.1,0-0.1,0.1-0.1,0.1
				c0,0.1,0.1,0.2,0.4,0.2c0.2,0,0.4-0.1,0.5-0.1v0.9c-0.2,0.1-0.4,0.1-0.6,0.1c-0.4,0-0.6-0.1-0.9-0.3c-0.2-0.2-0.3-0.4-0.3-0.8
				c0-0.3,0.1-0.6,0.3-0.8s0.4-0.3,0.8-0.3c0.2,0,0.4,0.1,0.7,0.1H20.6z"/>
			<path fill="#E9A3AF" d="M22.7,67.1v0.4c-0.2,0.3-0.5,0.4-0.9,0.4c-0.4,0-0.6-0.1-0.8-0.3c-0.2-0.2-0.3-0.4-0.3-0.8
				c0-0.3,0.1-0.6,0.3-0.8s0.4-0.3,0.7-0.3c0.1,0,0.3,0,0.4,0.1c0.1,0.1,0.2,0.1,0.4,0.2c0.1,0.1,0.1,0.2,0.2,0.4
				c0.1,0.1,0.1,0.3,0.1,0.5h-1c0,0.1,0.1,0.2,0.1,0.2c0.1,0.1,0.1,0.1,0.3,0.1c0.2,0,0.4-0.1,0.5-0.2V67.1z M21.7,66.6L21.7,66.6
				h0.4c0-0.1,0-0.2-0.1-0.2c-0.1-0.1-0.1-0.1-0.1-0.1c-0.1,0-0.1,0-0.1,0.1C21.7,66.5,21.7,66.5,21.7,66.6z"/>
			<path fill="#E9A3AF" d="M26,65.5l-0.4,0.9c-0.1-0.1-0.3-0.1-0.4-0.1c-0.2,0-0.4,0.1-0.4,0.2c0,0.1,0,0.1,0.1,0.1
				c0.1,0.1,0.1,0.1,0.3,0.1s0.3,0,0.4-0.1l0.4,1c-0.1,0.1-0.3,0.1-0.4,0.2C25.4,68,25.2,68,25.1,68c-0.4,0-0.7-0.1-0.9-0.4
				c-0.2-0.3-0.4-0.6-0.4-0.9c0-0.4,0.1-0.7,0.4-1s0.6-0.4,0.9-0.4c0.1,0,0.4,0,0.5,0.1c0.1,0.1,0.3,0.1,0.4,0.2V65.5z"/>
			<path fill="#E9A3AF" d="M27,66.2c0.1-0.3,0.3-0.5,0.5-0.5c0.1,0,0.2,0.1,0.3,0.1c0.1,0.1,0.1,0.2,0.1,0.4c0,0.1-0.1,0.3-0.1,0.4
				c-0.1,0.1-0.2,0.1-0.3,0.1c-0.1,0-0.3-0.1-0.4-0.2C27.1,66.6,27,66.8,27,67v0.8h-0.9v-2.1H27V66.2L27,66.2z"/>
			<path fill="#E9A3AF" d="M30,67.1v0.4c-0.2,0.3-0.5,0.4-0.9,0.4c-0.4,0-0.6-0.1-0.8-0.3c-0.2-0.2-0.3-0.4-0.3-0.8
				c0-0.3,0.1-0.6,0.3-0.8s0.4-0.3,0.7-0.3c0.1,0,0.3,0,0.4,0.1c0.1,0.1,0.2,0.1,0.4,0.2c0.1,0.1,0.1,0.2,0.2,0.4
				c0.1,0.1,0.1,0.3,0.1,0.5h-1c0,0.1,0.1,0.2,0.1,0.2c0.1,0.1,0.1,0.1,0.3,0.1c0.2,0,0.4-0.1,0.5-0.2V67.1z M28.9,66.6L28.9,66.6
				h0.4c0-0.1,0-0.2-0.1-0.2c-0.1-0.1-0.1-0.1-0.1-0.1c-0.1,0-0.1,0-0.1,0.1C28.9,66.5,28.9,66.5,28.9,66.6z"/>
			<path fill="#E9A3AF" d="M30.1,66.7V66c0.3-0.1,0.6-0.2,0.9-0.2c0.4,0,0.6,0.1,0.7,0.2c0.1,0.1,0.2,0.4,0.2,0.7v1.2H31v-0.1
				c-0.1,0.1-0.3,0.1-0.4,0.1c-0.1,0-0.3-0.1-0.4-0.1c-0.1-0.1-0.1-0.2-0.1-0.4s0.1-0.3,0.1-0.4c0.1-0.1,0.3-0.1,0.4-0.1
				c0.1,0,0.2,0,0.4,0.1c0-0.1,0-0.1-0.1-0.2s-0.1-0.1-0.3-0.1C30.5,66.6,30.3,66.7,30.1,66.7L30.1,66.7z M31,67.5L31,67.5v-0.3
				c-0.1,0-0.1,0-0.1,0c-0.1,0-0.1,0-0.1,0.1c0,0-0.1,0.1-0.1,0.1s0,0.1,0.1,0.1c0.1,0.1,0.1,0.1,0.1,0.1C31,67.6,31,67.6,31,67.5
				L31,67.5z"/>
			<path fill="#E9A3AF" d="M33.1,65.8v0.3c0.1-0.2,0.4-0.3,0.6-0.3c0.3,0,0.5,0.1,0.6,0.4c0.1-0.1,0.2-0.2,0.3-0.3
				c0.1-0.1,0.2-0.1,0.4-0.1c0.2,0,0.4,0.1,0.5,0.2c0.1,0.1,0.1,0.4,0.1,0.6v1.3h-0.9v-1.2c0-0.1,0-0.1-0.1-0.1
				c0-0.1-0.1-0.1-0.1-0.1c-0.1,0-0.1,0-0.1,0.1v1.4h-0.9v-1.2c0-0.1,0-0.1-0.1-0.1c0-0.1-0.1-0.1-0.1-0.1c-0.1,0-0.1,0-0.1,0.1v1.4
				H32v-2.1H33H33.1z"/>
		</g>
		<path fill="#E9A3AF" d="M18.6,76.5l0.4,1.4H34l0.4-1.4H18.6z"/>
		<path fill="#E9A3AF" d="M19.6,79.4h13.9l0.3-0.7H19.3L19.6,79.4z"/>
	</g>
	<g>
		<path fill="#FBF0AD" d="M3.3,38.3C1.1,34.9,0,30.8,0,26.4C0,11.8,11.8,0,26.4,0C41,0,52.8,11.8,52.8,26.4c0,5.3-1.5,10.4-4.8,14
			c-1.6,1.8-2.5,4.5-2.1,6.1c0.5,1.7-1.4,2.9-4.3,0.7c-0.7,3.9-3.2,7.1-7.7,7.6c-3.2,0.4-7-2.3-8.2-4.8s-2.9-3.6-4.3-0.9
			s-5.8,4.8-8.7,3.2c-2.9-1.7-2.2-4.8-1.9-7S9.6,44,8.1,45.9s-4.5,1.4-3.6-1.4c0.6-2.1,0.5-3.7-1.1-6.1L3.3,38.3z"/>
		<path fill="#FBF0AD" fill-opacity="0.502" d="M36.1,43.7C21.1,43.7,9,31.6,9,16.6c0-4.4,1.1-8.6,3-12.2C4.8,9.1,0.1,17.2,0.1,26.4
			c0,4.4,1.1,8.6,3.3,11.9c1.6,2.4,1.7,4,1.1,6.1c-0.9,2.8,2.2,3.4,3.6,1.4s2.9-2.7,2.7-0.5s-0.9,5.3,1.9,7c2.9,1.7,7.3-0.5,8.7-3.2
			c1.4-2.7,3.2-1.4,4.3,0.9c1.2,2.4,5,5,8.2,4.8c4.5-0.5,7-3.7,7.7-7.6c2.9,2.2,4.8,0.9,4.3-0.7c-0.4-1.5,0.3-3.7,1.5-5.5
			c-3.5,1.7-7.4,2.6-11.5,2.6L36.1,43.7z"/>
		<path fill="#FFFFFF" fill-opacity="0.8" d="M49.2,30.5c0,1.9-0.2,3.7-0.6,5.4c1.4-2.7,2.2-5.9,2.2-9.6C50.8,13,39.9,2,26.5,2
			c-3.5,0-6.7,0.7-9.6,2c1.7-0.4,3.5-0.6,5.4-0.6C37.2,3.5,49.2,15.6,49.2,30.5L49.2,30.5z"/>
	</g>
	<g>
		<path fill="#673A16" d="M42.5,24.3l-3.1-1.9l2-3.1l3,2L42.5,24.3z"/>
		<path fill="#673A16" d="M37.4,35.4l-3.5,1l-1-3.5l3.5-1L37.4,35.4z"/>
		<path fill="#673A16" d="M43.4,34.1l-2.2-1.9l1.9-2.2l2.2,1.9L43.4,34.1z"/>
		<path fill="#673A16" d="M13.3,32.6l-3.5-0.7l0.7-3.5l3.5,0.7L13.3,32.6z"/>
		<path fill="#673A16" d="M20.4,23.4l-2.3,2.3l-2.3-2.4l2.3-2.2L20.4,23.4z"/>
		<path fill="#673A16" d="M24.8,38.2L22,37.9l0.3-2.9l2.9,0.3L24.8,38.2z"/>
		<path fill="#673A16" d="M39.9,12l-3.2,2.4l-2.4-3.2l3.1-2.4L39.9,12z"/>
		<path fill="#673A16" d="M17.3,16.2l-3.5-1.9l1.9-3.5l3.5,1.9L17.3,16.2z"/>
		<path fill="#673A16" d="M29,10.9l-2.7,1.2l-1.2-2.6l2.6-1.3L29,10.9z"/>
		<path fill="#673A16" d="M31.5,22.5l-4.2,1.1l-1.1-4.2l4.2-1.1L31.5,22.5z"/>
	</g>
</g>
</svg>
