<?xml version="1.0" encoding="utf-8"?>
<!-- Generator: Adobe Illustrator 18.0.0, SVG Export Plug-In . SVG Version: 6.00 Build 0)  -->
<!DOCTYPE svg PUBLIC "-//W3C//DTD SVG 1.1//EN" "http://www.w3.org/Graphics/SVG/1.1/DTD/svg11.dtd">
<svg version="1.1" id="Layer_1" xmlns="http://www.w3.org/2000/svg" xmlns:xlink="http://www.w3.org/1999/xlink" x="0px" y="0px"
	 viewBox="0 0 52.8 92.2" enable-background="new 0 0 52.8 92.2" xml:space="preserve">
<g id="_285102272">
	<g>
		<g>
			<path fill="#E1B07E" d="M36.3,34.9c5.7,0,8.9,4.4,7.2,9.8L29.7,88.1c-1.7,5.4-4.5,5.4-6.3,0L9.6,44.7c-1.7-5.4,1.5-9.8,7.2-9.8
				H36.3z"/>
			<g>
				<g>
					<path fill="#010101" fill-opacity="0" stroke="#E5BF95" stroke-width="1.451" d="M31.3,82.8L24.1,90"/>
					<path fill="#010101" fill-opacity="0" stroke="#E5BF95" stroke-width="1.451" d="M35.3,70.3L22,83.7"/>
					<path fill="#010101" fill-opacity="0" stroke="#E5BF95" stroke-width="1.451" d="M39.2,58L19.9,77.3"/>
					<path fill="#010101" fill-opacity="0" stroke="#E5BF95" stroke-width="1.451" d="M43.2,45.6L17.9,70.8"/>
					<path fill="#010101" fill-opacity="0" stroke="#E5BF95" stroke-width="1.451" d="M42.6,37.7L15.8,64.4"/>
					<path fill="#010101" fill-opacity="0" stroke="#E5BF95" stroke-width="1.451" d="M36.9,34.9l-23,23"/>
				</g>
				<g>
					<path fill="#010101" fill-opacity="0" stroke="#E5BF95" stroke-width="1.451" d="M21.5,81.9l7.6,7.7"/>
					<path fill="#010101" fill-opacity="0" stroke="#E5BF95" stroke-width="1.451" d="M17.5,69.5l13.7,13.8"/>
					<path fill="#010101" fill-opacity="0" stroke="#E5BF95" stroke-width="1.451" d="M13.5,57.1l19.7,19.7"/>
					<path fill="#010101" fill-opacity="0" stroke="#E5BF95" stroke-width="1.451" d="M9.6,44.6l25.7,25.7"/>
					<path fill="#010101" fill-opacity="0" stroke="#E5BF95" stroke-width="1.451" d="M10.8,37.4l26.6,26.6"/>
					<path fill="#010101" fill-opacity="0" stroke="#E5BF95" stroke-width="1.451" d="M16.8,34.9l22.6,22.6"/>
				</g>
			</g>
			<path fill="#FFFFFF" d="M13.8,61.2l6.2,19.4H33l6.2-19.4c0-1.2-0.9-2.2-2.1-2.2c-0.8,0-1.4,0.4-1.8,1.1c-0.4-0.6-1-1.1-1.8-1.1
				c-0.8,0-1.4,0.4-1.8,1.1c-0.4-0.6-1-1.1-1.8-1.1c-0.8,0-1.4,0.4-1.8,1.1c-0.4-0.6-1-1.1-1.8-1.1c-0.8,0-1.4,0.4-1.8,1.1
				c-0.4-0.6-1-1.1-1.8-1.1S21.3,59.4,21,60c-0.4-0.6-1-1.1-1.8-1.1s-1.4,0.4-1.8,1.1c-0.4-0.6-1-1.1-1.8-1.1c-1.2,0-1.9,1-1.9,2.2
				H13.8z"/>
			<g>
				<path fill="#E9A3AF" d="M17.5,67.8v-2.6h1.1v2.6H17.5z"/>
				<path fill="#E9A3AF" d="M20.6,65.9v0.9c-0.2-0.1-0.4-0.1-0.5-0.1c-0.1,0-0.1,0-0.2,0.1c-0.1,0-0.1,0.1-0.1,0.1
					c0,0.1,0.1,0.2,0.4,0.2s0.4-0.1,0.5-0.1v0.9c-0.2,0.1-0.4,0.1-0.6,0.1c-0.4,0-0.6-0.1-0.9-0.3c-0.2-0.2-0.3-0.4-0.3-0.8
					c0-0.3,0.1-0.6,0.3-0.8c0.2-0.2,0.4-0.3,0.8-0.3c0.2,0,0.4,0.1,0.7,0.1H20.6z"/>
				<path fill="#E9A3AF" d="M22.7,67v0.4c-0.2,0.3-0.5,0.4-0.9,0.4c-0.4,0-0.6-0.1-0.8-0.3c-0.2-0.2-0.3-0.4-0.3-0.8
					c0-0.3,0.1-0.6,0.3-0.8c0.2-0.2,0.4-0.3,0.7-0.3c0.1,0,0.3,0,0.4,0.1c0.1,0.1,0.2,0.1,0.4,0.2c0.1,0.1,0.1,0.2,0.2,0.4
					c0.1,0.1,0.1,0.3,0.1,0.5h-1c0,0.1,0.1,0.2,0.1,0.2c0.1,0.1,0.1,0.1,0.3,0.1c0.2,0,0.4-0.1,0.5-0.2V67z M21.7,66.5L21.7,66.5
					h0.4c0-0.1,0-0.2-0.1-0.2c-0.1-0.1-0.1-0.1-0.1-0.1c-0.1,0-0.1,0-0.1,0.1C21.7,66.4,21.7,66.5,21.7,66.5z"/>
				<path fill="#E9A3AF" d="M26,65.4l-0.4,0.9c-0.1-0.1-0.3-0.1-0.4-0.1c-0.2,0-0.4,0.1-0.4,0.2c0,0.1,0,0.1,0.1,0.1
					c0.1,0.1,0.1,0.1,0.3,0.1c0.1,0,0.3,0,0.4-0.1l0.4,1c-0.1,0.1-0.3,0.1-0.4,0.2C25.4,68,25.2,68,25.1,68c-0.4,0-0.7-0.1-0.9-0.4
					c-0.2-0.3-0.4-0.6-0.4-0.9c0-0.4,0.1-0.7,0.4-1c0.2-0.3,0.6-0.4,0.9-0.4c0.1,0,0.4,0,0.5,0.1c0.1,0.1,0.3,0.1,0.4,0.2V65.4z"/>
				<path fill="#E9A3AF" d="M27,66.2c0.1-0.3,0.3-0.5,0.5-0.5c0.1,0,0.2,0.1,0.3,0.1c0.1,0.1,0.1,0.2,0.1,0.4s-0.1,0.3-0.1,0.4
					c-0.1,0.1-0.2,0.1-0.3,0.1c-0.1,0-0.3-0.1-0.4-0.2C27.1,66.6,27,66.8,27,67v0.8h-0.9v-2.1H27V66.2L27,66.2z"/>
				<path fill="#E9A3AF" d="M29.9,67v0.4c-0.2,0.3-0.5,0.4-0.9,0.4c-0.4,0-0.6-0.1-0.8-0.3s-0.3-0.4-0.3-0.8c0-0.3,0.1-0.6,0.3-0.8
					s0.4-0.3,0.7-0.3c0.1,0,0.3,0,0.4,0.1c0.1,0.1,0.2,0.1,0.4,0.2c0.1,0.1,0.1,0.2,0.2,0.4c0.1,0.1,0.1,0.3,0.1,0.5h-1
					c0,0.1,0.1,0.2,0.1,0.2c0.1,0.1,0.1,0.1,0.3,0.1c0.2,0,0.4-0.1,0.5-0.2V67z M28.9,66.5L28.9,66.5h0.4c0-0.1,0-0.2-0.1-0.2
					c-0.1-0.1-0.1-0.1-0.1-0.1s-0.1,0-0.1,0.1C28.9,66.4,28.9,66.5,28.9,66.5z"/>
				<path fill="#E9A3AF" d="M30.1,66.6v-0.6c0.3-0.1,0.6-0.2,0.9-0.2c0.4,0,0.6,0.1,0.7,0.2s0.2,0.4,0.2,0.7v1.2H31v-0.1
					c-0.1,0.1-0.3,0.1-0.4,0.1c-0.1,0-0.3-0.1-0.4-0.1c-0.1-0.1-0.1-0.2-0.1-0.4s0.1-0.3,0.1-0.4c0.1-0.1,0.3-0.1,0.4-0.1
					c0.1,0,0.2,0,0.4,0.1c0-0.1,0-0.1-0.1-0.2c-0.1-0.1-0.1-0.1-0.3-0.1C30.5,66.5,30.3,66.6,30.1,66.6L30.1,66.6z M31,67.4L31,67.4
					v-0.3c-0.1,0-0.1,0-0.1,0c-0.1,0-0.1,0-0.1,0.1c0,0-0.1,0.1-0.1,0.1s0,0.1,0.1,0.1c0.1,0.1,0.1,0.1,0.1,0.1
					C31,67.5,31,67.5,31,67.4L31,67.4z"/>
				<path fill="#E9A3AF" d="M33.1,65.8v0.3c0.1-0.2,0.4-0.3,0.6-0.3c0.3,0,0.5,0.1,0.6,0.4c0.1-0.1,0.2-0.2,0.3-0.3
					c0.1-0.1,0.2-0.1,0.4-0.1c0.2,0,0.4,0.1,0.5,0.2c0.1,0.1,0.1,0.4,0.1,0.6v1.3h-0.9v-1.2c0-0.1,0-0.1-0.1-0.1
					c0-0.1-0.1-0.1-0.1-0.1s-0.1,0-0.1,0.1v1.4h-0.9v-1.2c0-0.1,0-0.1-0.1-0.1c0-0.1-0.1-0.1-0.1-0.1c-0.1,0-0.1,0-0.1,0.1v1.4H32
					v-2.1H33H33.1z"/>
			</g>
			<path fill="#E9A3AF" d="M18.6,76.5l0.4,1.4H34l0.4-1.4H18.6z"/>
			<path fill="#E9A3AF" d="M19.5,79.3h14l0.3-0.7H19.3L19.5,79.3z"/>
		</g>
		<g>
			<path fill="#F8E427" d="M48.8,39.4c2.1-4,4-8.1,4-13C52.8,11.8,41,0,26.4,0S0,11.8,0,26.4c0,6,2.2,11.2,5.8,15.3
				c0.9,0.8,1.8,2.2,1.6,3.5c-0.2,1.3,1.6,1.7,5.6-0.4c0.7-0.4,2.9,0.7,3.5,3.8c0.6,3.1,2.8,4.3,5.6,2.9c4.3-2.2,2.8-5.1,6.2-5.1
				c2.4,0,4.5,1.4,5.6,3.1c1.6,2.4,7.6,1.3,8.1-1.3c0.2-1,0.2-2.9,0.6-4.2c0.4-1.3,2.4-1.4,3.2-0.6c0.9,0.9,2.9,0.4,2.5-1.7
				C48,39.9,48.3,40.2,48.8,39.4L48.8,39.4z"/>
			<path fill="#F8E427" d="M8.9,16.6c0-4.4,1.1-8.6,3-12.2C4.8,9.1,0,17.1,0,26.4c0,6,2.2,11.2,5.8,15.3c0.9,0.8,1.8,2.2,1.6,3.5
				c-0.2,1.3,1.6,1.7,5.6-0.4c0.7-0.4,2.9,0.7,3.5,3.8c0.6,3.1,2.8,4.3,5.6,2.9c4.3-2.2,2.8-5.1,6.2-5.1c2.4,0,4.5,1.4,5.6,3.1
				c1.6,2.4,7.6,1.3,8.1-1.3c0.2-1,0.2-2.9,0.6-4.2c0.4-1.3,2.4-1.4,3.2-0.6c0.9,0.9,2.9,0.4,2.5-1.7c-0.1-0.6-0.1-0.9-0.1-1.2
				c-3.7,1.9-7.8,2.9-12.2,2.9c-15,0-27.1-12.1-27.1-27.1V16.6z"/>
			<path fill="#FFFFFF" fill-opacity="0.8" d="M49.2,30.6c0,1.9-0.2,3.7-0.6,5.5c1.4-2.7,2.2-5.9,2.2-9.6
				c0-13.4-10.9-24.3-24.3-24.3c-3.5,0-6.7,0.7-9.6,2c1.7-0.4,3.5-0.6,5.4-0.6C37.1,3.6,49.2,15.7,49.2,30.6z"/>
		</g>
	</g>
	<g>
		<path fill="#F89927" d="M26.6,16.5c0,3-2.4,5.3-5.3,5.3s-5.3-2.4-5.3-5.3c0-3,2.4-5.3,5.3-5.3S26.6,13.5,26.6,16.5z"/>
		<path fill="#F89927" d="M27,31.8c0,2.2-1.7,3.9-3.9,3.9c-2.2,0-3.9-1.7-3.9-3.9c0-2.2,1.7-3.9,3.9-3.9C25.3,27.9,27,29.7,27,31.8z
			"/>
		<path fill="#F89927" d="M12.2,26.4c0,1.9-1.5,3.4-3.4,3.4c-1.9,0-3.4-1.5-3.4-3.4C5.5,24.6,7,23,8.9,23
			C10.7,23,12.2,24.6,12.2,26.4z"/>
		<path fill="#F89927" d="M39.3,18.2c0,1.9-1.5,3.4-3.4,3.4s-3.4-1.5-3.4-3.4c0-1.9,1.5-3.4,3.4-3.4S39.3,16.3,39.3,18.2z"/>
		<path fill="#F89927" d="M44.2,29.3c0,1.9-1.5,3.4-3.4,3.4c-1.9,0-3.4-1.5-3.4-3.4s1.5-3.4,3.4-3.4C42.7,25.9,44.2,27.4,44.2,29.3z
			"/>
	</g>
</g>
</svg>
