<?xml version="1.0" encoding="utf-8"?>
<!-- Generator: Adobe Illustrator 18.0.0, SVG Export Plug-In . SVG Version: 6.00 Build 0)  -->
<!DOCTYPE svg PUBLIC "-//W3C//DTD SVG 1.1//EN" "http://www.w3.org/Graphics/SVG/1.1/DTD/svg11.dtd">
<svg version="1.1" id="Layer_1" xmlns="http://www.w3.org/2000/svg" xmlns:xlink="http://www.w3.org/1999/xlink" x="0px" y="0px"
	 viewBox="0 0 54.9 90.5" enable-background="new 0 0 54.9 90.5" xml:space="preserve">
<g id="_285111440">
	<g>
		<path fill="#E1B07E" d="M37.3,33.3c5.7,0,8.9,4.4,7.2,9.8L30.7,86.5c-1.7,5.4-4.5,5.4-6.2,0L10.7,43.1c-1.7-5.4,1.5-9.8,7.2-9.8
			H37.3L37.3,33.3z"/>
		<g>
			<g>
				<path fill="#010101" fill-opacity="0" stroke="#E5BF95" stroke-width="1.451" d="M32.3,81.1l-7.2,7.2"/>
				<path fill="#010101" fill-opacity="0" stroke="#E5BF95" stroke-width="1.451" d="M36.3,68.7L23,82"/>
				<path fill="#010101" fill-opacity="0" stroke="#E5BF95" stroke-width="1.451" d="M40.2,56.3L21,75.6"/>
				<path fill="#010101" fill-opacity="0" stroke="#E5BF95" stroke-width="1.451" d="M44.2,43.9L18.9,69.2"/>
				<path fill="#010101" fill-opacity="0" stroke="#E5BF95" stroke-width="1.451" d="M43.6,36.1L16.8,62.7"/>
				<path fill="#010101" fill-opacity="0" stroke="#E5BF95" stroke-width="1.451" d="M37.9,33.3l-23,23"/>
			</g>
			<g>
				<path fill="#010101" fill-opacity="0" stroke="#E5BF95" stroke-width="1.451" d="M22.5,80.2l7.6,7.7"/>
				<path fill="#010101" fill-opacity="0" stroke="#E5BF95" stroke-width="1.451" d="M18.5,67.8l13.7,13.8"/>
				<path fill="#010101" fill-opacity="0" stroke="#E5BF95" stroke-width="1.451" d="M14.5,55.4l19.7,19.7"/>
				<path fill="#010101" fill-opacity="0" stroke="#E5BF95" stroke-width="1.451" d="M10.6,43l25.7,25.7"/>
				<path fill="#010101" fill-opacity="0" stroke="#E5BF95" stroke-width="1.451" d="M11.8,35.7l26.6,26.6"/>
				<path fill="#010101" fill-opacity="0" stroke="#E5BF95" stroke-width="1.451" d="M17.8,33.3l22.6,22.6"/>
			</g>
		</g>
		<path fill="#FFFFFF" d="M14.8,59.5L21,79h13.1l6.2-19.4c0-1.2-0.9-2.2-2.1-2.2c-0.8,0-1.4,0.4-1.8,1.1c-0.4-0.6-1-1.1-1.8-1.1
			c-0.8,0-1.4,0.4-1.8,1.1c-0.4-0.6-1-1.1-1.8-1.1c-0.8,0-1.4,0.4-1.8,1.1c-0.4-0.6-1-1.1-1.8-1.1s-1.4,0.4-1.8,1.1
			c-0.4-0.6-1-1.1-1.8-1.1s-1.4,0.4-1.8,1.1c-0.4-0.6-1-1.1-1.8-1.1s-1.4,0.4-1.8,1.1c-0.4-0.6-1-1.1-1.8-1.1c-1.2,0-1.9,1-1.9,2.2
			H14.8z"/>
		<g>
			<path fill="#E9A3AF" d="M18.6,66.2v-2.6h1v2.6H18.6z"/>
			<path fill="#E9A3AF" d="M21.6,64.2v0.9c-0.2-0.1-0.4-0.1-0.5-0.1c-0.1,0-0.1,0-0.2,0.1c-0.1,0-0.1,0.1-0.1,0.1
				c0,0.1,0.1,0.2,0.4,0.2s0.4-0.1,0.5-0.1v0.9c-0.2,0.1-0.4,0.1-0.6,0.1c-0.4,0-0.6-0.1-0.9-0.3c-0.2-0.2-0.3-0.4-0.3-0.8
				c0-0.3,0.1-0.6,0.3-0.8c0.2-0.2,0.4-0.3,0.8-0.3c0.2,0,0.4,0.1,0.7,0.1H21.6z"/>
			<path fill="#E9A3AF" d="M23.7,65.4v0.4c-0.2,0.3-0.5,0.4-0.9,0.4c-0.4,0-0.6-0.1-0.8-0.3s-0.3-0.4-0.3-0.8c0-0.3,0.1-0.6,0.3-0.8
				s0.4-0.3,0.7-0.3c0.1,0,0.3,0,0.4,0.1c0.1,0.1,0.2,0.1,0.4,0.2c0.1,0.1,0.1,0.2,0.2,0.4s0.1,0.3,0.1,0.5h-1
				c0,0.1,0.1,0.2,0.1,0.2c0.1,0.1,0.1,0.1,0.3,0.1c0.2,0,0.4-0.1,0.5-0.2V65.4z M22.7,64.9L22.7,64.9h0.4c0-0.1,0-0.2-0.1-0.2
				c-0.1-0.1-0.1-0.1-0.1-0.1c-0.1,0-0.1,0-0.1,0.1C22.7,64.7,22.7,64.8,22.7,64.9z"/>
			<path fill="#E9A3AF" d="M27,63.8l-0.4,0.9c-0.1-0.1-0.3-0.1-0.4-0.1c-0.2,0-0.4,0.1-0.4,0.2c0,0.1,0,0.1,0.1,0.1
				c0.1,0.1,0.1,0.1,0.3,0.1s0.3,0,0.4-0.1l0.4,1c-0.1,0.1-0.3,0.1-0.4,0.2c-0.1,0.1-0.4,0.1-0.5,0.1c-0.4,0-0.7-0.1-0.9-0.4
				c-0.2-0.3-0.4-0.6-0.4-0.9c0-0.4,0.1-0.7,0.4-1c0.2-0.3,0.6-0.4,0.9-0.4c0.1,0,0.4,0,0.5,0.1c0.1,0.1,0.3,0.1,0.4,0.2V63.8z"/>
			<path fill="#E9A3AF" d="M28,64.6c0.1-0.3,0.3-0.5,0.5-0.5c0.1,0,0.2,0.1,0.3,0.1c0.1,0.1,0.1,0.2,0.1,0.4s-0.1,0.3-0.1,0.4
				c-0.1,0.1-0.2,0.1-0.3,0.1c-0.1,0-0.3-0.1-0.4-0.2c-0.1,0.1-0.1,0.3-0.1,0.5v0.8h-0.9v-2.1H28V64.6L28,64.6z"/>
			<path fill="#E9A3AF" d="M30.9,65.4v0.4c-0.2,0.3-0.5,0.4-0.9,0.4c-0.4,0-0.6-0.1-0.8-0.3s-0.3-0.4-0.3-0.8c0-0.3,0.1-0.6,0.3-0.8
				s0.4-0.3,0.7-0.3c0.1,0,0.3,0,0.4,0.1s0.2,0.1,0.4,0.2c0.1,0.1,0.1,0.2,0.2,0.4c0.1,0.1,0.1,0.3,0.1,0.5h-1
				c0,0.1,0.1,0.2,0.1,0.2c0.1,0.1,0.1,0.1,0.3,0.1c0.2,0,0.4-0.1,0.5-0.2V65.4z M29.9,64.9L29.9,64.9h0.4c0-0.1,0-0.2-0.1-0.2
				c-0.1-0.1-0.1-0.1-0.1-0.1s-0.1,0-0.1,0.1C29.9,64.7,29.9,64.8,29.9,64.9z"/>
			<path fill="#E9A3AF" d="M31.1,64.9v-0.6c0.3-0.1,0.6-0.2,0.9-0.2c0.4,0,0.6,0.1,0.7,0.2c0.1,0.1,0.2,0.4,0.2,0.7v1.2H32V66
				c-0.1,0.1-0.3,0.1-0.4,0.1c-0.1,0-0.3-0.1-0.4-0.1s-0.1-0.2-0.1-0.4s0.1-0.3,0.1-0.4c0.1-0.1,0.3-0.1,0.4-0.1
				c0.1,0,0.2,0,0.4,0.1c0-0.1,0-0.1-0.1-0.2c-0.1-0.1-0.1-0.1-0.3-0.1C31.5,64.9,31.3,64.9,31.1,64.9L31.1,64.9z M32,65.7L32,65.7
				v-0.3c-0.1,0-0.1,0-0.1,0c-0.1,0-0.1,0-0.1,0.1c0,0-0.1,0.1-0.1,0.1s0,0.1,0.1,0.1c0.1,0.1,0.1,0.1,0.1,0.1
				C32,65.9,32,65.9,32,65.7L32,65.7z"/>
			<path fill="#E9A3AF" d="M34.1,64.2v0.3c0.1-0.2,0.4-0.3,0.6-0.3c0.3,0,0.5,0.1,0.6,0.4c0.1-0.1,0.2-0.2,0.3-0.3
				c0.1-0.1,0.2-0.1,0.4-0.1c0.2,0,0.4,0.1,0.5,0.2c0.1,0.1,0.1,0.4,0.1,0.6v1.3h-0.9V65c0-0.1,0-0.1-0.1-0.1c0-0.1-0.1-0.1-0.1-0.1
				s-0.1,0-0.1,0.1v1.4h-0.9V65c0-0.1,0-0.1-0.1-0.1c0-0.1-0.1-0.1-0.1-0.1c-0.1,0-0.1,0-0.1,0.1v1.4H33v-2.1H34H34.1z"/>
		</g>
		<path fill="#E9A3AF" d="M19.7,74.8l0.4,1.4H35l0.4-1.4H19.7z"/>
		<path fill="#E9A3AF" d="M20.6,77.7h13.9l0.3-0.7H20.3L20.6,77.7z"/>
	</g>
	<path fill="#EB9AA4" d="M4.5,39.2c-2.2-3.4-3.3-7.5-3.3-11.9C1.2,12.7,13,0.9,27.6,0.9C42.2,0.9,54,12.7,54,27.4
		c0,5.3-1.5,10.4-4.8,14c-1.6,1.8-2.5,4.5-2.1,6.1c0.5,1.7-1.4,2.9-4.3,0.7c-0.7,3.9-3.2,7.1-7.8,7.6c-3.2,0.4-7-2.3-8.2-4.7
		c-1.2-2.4-2.9-3.6-4.3-0.9c-1.4,2.7-5.8,4.8-8.7,3.2c-2.9-1.7-2.2-4.8-1.9-7s-1.2-1.4-2.7,0.5s-4.5,1.4-3.6-1.4
		c0.6-2.1,0.5-3.7-1.1-6.1L4.5,39.2z"/>
	<path fill="#EB9AA4" fill-opacity="0.502" d="M37.2,44.6c-15,0-27.1-12.1-27.1-27.1c0-4.4,1.1-8.6,3-12.2
		c-7.1,4.8-11.9,12.8-11.9,22c0,4.4,1.1,8.6,3.3,11.9c1.6,2.4,1.7,4,1.1,6.1c-0.9,2.8,2.2,3.4,3.6,1.4s2.9-2.7,2.7-0.5
		s-0.9,5.3,1.9,7c2.9,1.7,7.3-0.5,8.7-3.2c1.4-2.7,3.2-1.4,4.3,0.9c1.2,2.4,5,5,8.2,4.7c4.5-0.5,7-3.7,7.8-7.6
		c2.9,2.2,4.8,0.9,4.3-0.7c-0.4-1.5,0.3-3.7,1.5-5.5c-3.5,1.7-7.4,2.6-11.5,2.6L37.2,44.6z"/>
	<path fill="#673A16" d="M4.5,28.9c1.4-1.4,1.9,0.1,2.9,2.7c0.9,2.5,4.1,2.3,4.2,0.2c0.1-2.1,0.7-3.7,2.4-3.2
		c1.2,0.4,1.2,2.4,3.4,4.6c1.8,1.8,2.5,0.4,3.2-3.2c0.5-2.8,2.2-3.7,3.6-2.9c1.4,0.7,1.3,4,0.9,6.8c-0.5,3.9,3.3,4.4,4.5,0.6
		c1.1-3.5,2.1-6.2,4-4.2c1.9,1.9,1.4,5.2,3.4,5.5c1.9,0.2,3.2-1.6,3.5-5.2c0.1-1.9,3.4-1.9,3.6,0.5s-0.1,4.3,2.3,3.6s2.5-4.5,4-3.2
		c0.7,0.6,2.2,4.2,3.7,2.1c0.4-1.9,0.6-3.9,0.6-6C54.9,12.3,42.6,0,27.4,0C12.3,0,0,12.3,0,27.4c0,2.5,0.4,4.8,1,7.1
		C3.4,34.4,3.3,30.2,4.5,28.9L4.5,28.9z"/>
	<path fill="#FFFFFF" fill-opacity="0.8" d="M50.3,31.5c0,1.9-0.2,3.7-0.6,5.4c1.4-2.7,2.2-5.9,2.2-9.6C51.9,13.9,41,3,27.6,3
		c-3.5,0-6.7,0.7-9.6,2c1.7-0.4,3.5-0.6,5.4-0.6C38.2,4.4,50.3,16.5,50.3,31.5L50.3,31.5z"/>
	<g>
		<path fill="#010101" fill-opacity="0" stroke="#F6EC35" stroke-width="1.451" d="M21.6,12.5l4.1-2.4"/>
		<path fill="#010101" fill-opacity="0" stroke="#54BAEA" stroke-width="1.451" d="M35,7.3l-0.5,4.9"/>
		<path fill="#010101" fill-opacity="0" stroke="#E780B0" stroke-width="1.451" d="M29.9,15.3l4.1,2.3"/>
		<path fill="#010101" fill-opacity="0" stroke="#E780B0" stroke-width="1.451" d="M28.7,3.9l2.2,3.7"/>
		<path fill="#010101" fill-opacity="0" stroke="#F6EC35" stroke-width="1.451" d="M40.6,11.7l2.3-2.3"/>
		<path fill="#010101" fill-opacity="0" stroke="#54BAEA" stroke-width="1.451" d="M19.9,6.6l1.8,2.5"/>
		<path fill="#010101" fill-opacity="0" stroke="#89C340" stroke-width="1.451" d="M14.3,13.8l3.9,1.6"/>
		<path fill="#010101" fill-opacity="0" stroke="#89C340" stroke-width="1.451" d="M29.1,10.4L27.9,14"/>
		<path fill="#010101" fill-opacity="0" stroke="#E780B0" stroke-width="1.451" d="M36.6,15.6l3.5-1"/>
		<path fill="#010101" fill-opacity="0" stroke="#54BAEA" stroke-width="1.451" d="M21,15l-1.8,2.8"/>
		<path fill="#010101" fill-opacity="0" stroke="#F6EC35" stroke-width="1.451" d="M37.1,17.1l-0.5,3.4"/>
		<path fill="#010101" fill-opacity="0" stroke="#F6EC35" stroke-width="1.451" d="M23.8,15.3l1.3,3"/>
	</g>
</g>
</svg>
